<?xml version="1.0" encoding="UTF-8" standalone="no"?>
<!-- Created with Inkscape (http://www.inkscape.org/) -->

<svg
   xmlns:dc="http://purl.org/dc/elements/1.1/"
   xmlns:cc="http://creativecommons.org/ns#"
   xmlns:rdf="http://www.w3.org/1999/02/22-rdf-syntax-ns#"
   xmlns:svg="http://www.w3.org/2000/svg"
   xmlns="http://www.w3.org/2000/svg"
   xmlns:sodipodi="http://sodipodi.sourceforge.net/DTD/sodipodi-0.dtd"
   xmlns:inkscape="http://www.inkscape.org/namespaces/inkscape"
   width="264.58334mm"
   height="66.299606mm"
   viewBox="0 0 264.58334 66.299606"
   version="1.1"
   id="svg883"
   inkscape:version="0.92.4 (5da689c313, 2019-01-14)"
   sodipodi:docname="Toyota Supra 2019.svg">
  <defs
     id="defs877">
    <clipPath
       clipPathUnits="userSpaceOnUse"
       id="clipPath325">
      <path
         d="M 0,0 H 841.89 V 595.276 H 0 Z"
         id="path323"
         inkscape:connector-curvature="0" />
    </clipPath>
    <clipPath
       clipPathUnits="userSpaceOnUse"
       id="clipPath309">
      <path
         d="M 0,0 H 841.89 V 595.276 H 0 Z"
         id="path307"
         inkscape:connector-curvature="0" />
    </clipPath>
    <clipPath
       clipPathUnits="userSpaceOnUse"
       id="clipPath285">
      <path
         d="M 0,0 H 841.89 V 595.276 H 0 Z"
         id="path283"
         inkscape:connector-curvature="0" />
    </clipPath>
  </defs>
  <sodipodi:namedview
     id="base"
     pagecolor="#ffffff"
     bordercolor="#666666"
     borderopacity="1.0"
     inkscape:pageopacity="0.0"
     inkscape:pageshadow="2"
     inkscape:zoom="1"
     inkscape:cx="597.26053"
     inkscape:cy="151.16238"
     inkscape:document-units="mm"
     inkscape:current-layer="layer1"
     showgrid="false"
     fit-margin-top="0"
     fit-margin-left="0"
     fit-margin-right="0"
     fit-margin-bottom="0"
     inkscape:window-width="1920"
     inkscape:window-height="1001"
     inkscape:window-x="-9"
     inkscape:window-y="-9"
     inkscape:window-maximized="1" />
  <metadata
     id="metadata880">
    <rdf:RDF>
      <cc:Work
         rdf:about="">
        <dc:format>image/svg+xml</dc:format>
        <dc:type
           rdf:resource="http://purl.org/dc/dcmitype/StillImage" />
        <dc:title></dc:title>
      </cc:Work>
    </rdf:RDF>
  </metadata>
  <g
     inkscape:label="Layer 1"
     inkscape:groupmode="layer"
     id="layer1"
     transform="translate(28.959048,33.228191)">
    <g
       id="g961"
       transform="matrix(2.5999869,0,0,2.5999869,46.334097,-52.913829)">
      <g
         style="fill:#000000"
         id="g279"
         transform="matrix(0.35277777,0,0,-0.35277777,-93.974862,187.07154)">
        <g
           style="fill:#000000"
           clip-path="url(#clipPath285)"
           id="g281">
          <g
             style="fill:#000000"
             transform="translate(339.6504,494.6652)"
             id="g287">
            <path
               inkscape:connector-curvature="0"
               id="path289"
               style="fill:#000000;fill-opacity:1;fill-rule:nonzero;stroke:none"
               d="m 0,0 c 2.665,0 4.828,2.444 4.828,5.475 0,3.043 -2.163,5.494 -4.828,5.494 -2.676,0 -4.844,-2.451 -4.844,-5.494 C -4.844,2.444 -2.676,0 0,0 m -8.674,5.475 c 0,4.797 3.883,8.679 8.674,8.679 4.786,0 8.659,-3.882 8.659,-8.679 0,-4.784 -3.873,-8.657 -8.659,-8.657 -4.791,0 -8.674,3.873 -8.674,8.657" />
          </g>
        </g>
      </g>
      <g
         style="fill:#000000"
         transform="matrix(0.35277777,0,0,-0.35277777,32.372707,8.848569)"
         id="g291">
        <path
           inkscape:connector-curvature="0"
           id="path293"
           style="fill:#000000;fill-opacity:1;fill-rule:nonzero;stroke:none"
           d="M 0,0 V -13.32 H -3.653 V 0 h 0.007 -5.107 V 3.019 H 5.082 V 0 H 0.013 Z" />
      </g>
      <g
         style="fill:#000000"
         transform="matrix(0.35277777,0,0,-0.35277777,36.907983,11.277727)"
         id="g295">
        <path
           inkscape:connector-curvature="0"
           id="path297"
           style="fill:#000000;fill-opacity:1;fill-rule:nonzero;stroke:none"
           d="M 0,0 H 2.304 L 0.027,5.97 H -0.016 L -2.296,0 Z M -3.345,-2.76 -3.356,-2.767 -4.749,-6.435 H -9.02 l 6.743,16.34 H 0 2.273 L 9.016,-6.435 H 4.751 L 3.356,-2.767 3.339,-2.76 H 0 Z" />
      </g>
      <g
         style="fill:#000000"
         transform="matrix(0.35277777,0,0,-0.35277777,8.622369,8.848569)"
         id="g299">
        <path
           inkscape:connector-curvature="0"
           id="path301"
           style="fill:#000000;fill-opacity:1;fill-rule:nonzero;stroke:none"
           d="M 0,0 V -13.32 H -3.657 V 0 H -3.643 -8.75 V 3.019 H 5.09 V 0 H 0.013 Z" />
      </g>
      <g
         style="fill:#000000"
         id="g303"
         transform="matrix(0.35277777,0,0,-0.35277777,-93.974862,187.07154)">
        <g
           style="fill:#000000"
           clip-path="url(#clipPath309)"
           id="g305">
          <g
             style="fill:#000000"
             transform="translate(305.5233,494.6652)"
             id="g311">
            <path
               inkscape:connector-curvature="0"
               id="path313"
               style="fill:#000000;fill-opacity:1;fill-rule:nonzero;stroke:none"
               d="m 0,0 c 2.677,0 4.834,2.444 4.834,5.475 0,3.043 -2.157,5.494 -4.834,5.494 -2.675,0 -4.832,-2.451 -4.832,-5.494 C -4.832,2.444 -2.675,0 0,0 m -8.672,5.475 c 0,4.797 3.881,8.679 8.672,8.679 4.789,0 8.667,-3.882 8.667,-8.679 0,-4.784 -3.878,-8.657 -8.667,-8.657 -4.791,0 -8.672,3.873 -8.672,8.657" />
          </g>
        </g>
      </g>
      <g
         style="fill:#000000"
         transform="matrix(0.35277777,0,0,-0.35277777,19.827647,13.547746)"
         id="g315">
        <path
           inkscape:connector-curvature="0"
           id="path317"
           style="fill:#000000;fill-opacity:1;fill-rule:nonzero;stroke:none"
           d="M 0,0 H 1.848 V 6.129 6.202 L 8.217,16.339 H 3.952 L 0,9.469 -3.962,16.339 H -8.229 L -1.859,6.202 V 6.129 0 Z" />
      </g>
      <g
         style="fill:#000000"
         id="g319"
         transform="matrix(0.35277777,0,0,-0.35277777,-93.974862,187.07154)">
        <g
           style="fill:#000000"
           clip-path="url(#clipPath325)"
           id="g321">
          <g
             style="fill:#000000"
             transform="translate(313.6838,469.3608)"
             id="g327">
            <path
               inkscape:connector-curvature="0"
               id="path329"
               style="fill:#000000;fill-opacity:1;fill-rule:nonzero;stroke:none"
               d="m 0,0 c -2.471,-1.798 -4.997,-3.525 -7.398,-5.412 -3.18,-2.498 -4.413,-2.668 -7.767,-0.323 -1.03,0.72 -1.839,0.735 -2.955,0.335 -4.733,-1.694 -9.534,-3.186 -14.623,-3.241 -4.891,-0.052 -7.218,2.145 -7.691,7.049 -0.028,0.294 -0.113,0.582 -0.242,1.218 -1.2,-0.586 -2.55,-0.853 -3.285,-1.672 -3.218,-3.586 -7.492,-4.816 -11.942,-5.324 -5.996,-0.684 -12.035,-1.093 -18.067,-1.333 -6.04,-0.241 -12.095,-0.164 -18.144,-0.158 -3.791,0.003 -7.585,0.086 -11.372,0.242 -0.929,0.038 -2.04,0.25 -2.726,0.805 -4.298,3.476 -9.386,4.608 -14.672,5.333 -1.965,0.269 -3.891,0.842 -5.823,1.322 -0.435,0.109 -0.92,0.319 -1.211,0.639 -0.555,0.608 -0.986,1.329 -1.469,2.003 0.716,0.212 1.431,0.604 2.149,0.61 8.204,0.066 16.41,-0.025 24.612,0.121 9.065,0.162 18.128,0.51 27.19,0.824 1.008,0.034 2.036,0.274 3.001,0.586 2.492,0.803 2.947,2.72 1.012,4.513 -0.962,0.891 -2.088,1.708 -3.284,2.224 -6.53,2.818 -13.111,5.515 -19.658,8.293 -1.361,0.577 -2.74,1.189 -3.955,2.015 -1.993,1.354 -1.922,3.792 0.261,4.818 1.567,0.736 3.452,1.281 5.147,1.172 5.715,-0.368 11.424,-0.943 17.105,-1.675 5.53,-0.713 11.034,-1.653 16.528,-2.614 3.512,-0.615 6.046,-2.867 8.266,-5.498 0.194,-0.231 0.171,-0.645 0.342,-1.371 -1.262,0.237 -2.286,0.37 -3.279,0.623 -6.388,1.628 -12.734,3.439 -19.167,4.864 -3.376,0.747 -6.894,0.915 -10.361,1.154 -0.799,0.055 -1.652,-0.668 -2.48,-1.033 0.651,-0.567 1.212,-1.394 1.968,-1.659 7.002,-2.449 14.058,-4.744 21.054,-7.209 3.036,-1.069 5.994,-2.375 8.938,-3.684 1.725,-0.768 3.437,-1.63 5.002,-2.678 1.55,-1.039 2.907,-2.364 4.588,-3.763 1.044,1.044 2.314,2.201 3.45,3.477 1.225,1.375 2.361,2.834 3.47,4.306 0.902,1.196 1.721,1.338 2.593,0.067 0.768,-1.121 1.301,-2.422 1.812,-3.693 0.514,-1.279 0.803,-2.648 1.316,-3.926 0.729,-1.818 1.707,-2.293 3.635,-1.957 6.572,1.144 11.188,4.837 13.904,10.868 0.555,1.231 1.137,1.397 2.327,1.049 2.268,-0.664 3.723,-2.129 4.467,-4.281 0.532,-1.54 0.888,-3.145 1.265,-4.735 0.538,-2.276 1.56,-2.669 3.642,-1.398 3.145,1.921 6.276,3.871 9.477,5.695 1.368,0.78 2.881,1.319 4.361,1.882 1.118,0.425 2.137,0.213 2.789,-0.904 0.513,-0.879 1.144,-0.967 2.061,-0.576 6.552,2.794 13.437,4.281 20.482,5.105 0.76,0.089 1.536,0.099 2.302,0.069 3.842,-0.15 5.585,-2.553 4.422,-6.226 -0.412,-1.301 -1.126,-2.507 -1.785,-3.934 0.802,0.305 1.568,0.514 2.259,0.87 4.959,2.557 9.9,5.149 14.854,7.714 0.769,0.398 1.548,0.829 2.374,1.052 1.739,0.471 3.034,-0.404 3.059,-2.2 0.019,-1.468 0.611,-1.723 1.794,-1.285 3.114,1.152 6.252,2.248 9.312,3.53 2.49,1.042 3.454,0.959 4.836,-1.311 0.666,-1.095 1.165,-1.035 2.172,-0.512 6.544,3.398 13.341,6.047 20.813,6.446 2.526,0.135 5.007,-0.177 7.322,-1.309 2.229,-1.09 3.709,-2.705 3.753,-5.336 0.003,-0.2 0.06,-0.402 0.118,-0.596 0.028,-0.089 0.118,-0.16 0.286,-0.376 2.29,0.956 4.624,1.93 6.958,2.904 0.128,-0.085 0.256,-0.17 0.384,-0.255 -0.23,-0.599 -0.351,-1.275 -0.711,-1.781 -0.77,-1.083 -1.714,-2.042 -2.497,-3.118 -1.969,-2.706 -0.997,-5.521 2.327,-5.893 4.055,-0.453 8.178,-0.623 12.256,-0.479 7.984,0.282 15.958,0.869 23.936,1.322 0.598,0.034 1.2,0.004 1.889,0.004 -0.097,-1.464 -0.981,-2.149 -1.98,-2.442 -2.1,-0.615 -4.238,-1.281 -6.399,-1.467 -4.492,-0.386 -8.48,-1.829 -11.94,-4.719 -1.421,-1.187 -3.01,-1.877 -4.907,-1.883 -6.77,-0.021 -13.534,-0.002 -20.17,1.602 -0.941,0.227 -1.87,0.545 -2.763,0.919 -2.701,1.13 -3.552,2.73 -3.042,5.586 0.062,0.346 0.132,0.69 0.257,1.338 -0.59,-0.29 -1.021,-0.469 -1.419,-0.702 -7.694,-4.499 -15.88,-7.68 -24.793,-8.474 -3.472,-0.309 -7.028,0.135 -10.526,0.45 -1.042,0.094 -2.115,0.784 -3.003,1.433 -1.97,1.439 -2.432,3.624 -1.135,5.693 0.937,1.494 2.165,2.806 3.25,4.182 -4.714,2.226 -12.429,-1.194 -14.001,-6.407 -0.448,-1.486 -1.2,-2.243 -2.617,-2.839 -2.633,-1.107 -5.164,-2.469 -7.688,-3.817 -1.492,-0.797 -2.342,-0.498 -2.507,1.225 -0.298,3.107 0.275,6.086 1.493,9.176 -2.119,-1.046 -4.29,-1.999 -6.343,-3.162 -2.003,-1.134 -3.909,-2.445 -5.815,-3.741 -5.104,-3.474 -10.557,-4.193 -16.386,-2.192 -1.839,0.631 -3.706,1.183 -5.52,1.878 -1.103,0.424 -1.673,0.12 -2.174,-0.9 -1.732,-3.517 -1.988,-7.307 -1.218,-10.96 0.706,-3.349 0.329,-6.611 0.381,-9.912 0.026,-1.661 0.004,-3.324 -0.287,-5.085 -4.787,3.945 -7.063,9.261 -8.403,15.071 -1.353,5.861 -1.215,11.677 0.993,17.372 C 0.276,-0.254 0.138,-0.127 0,0 m 81.046,0.876 c 0.075,-0.179 0.149,-0.359 0.223,-0.538 0.884,-0.096 1.79,-0.367 2.648,-0.259 6.989,0.879 13.714,2.769 20.257,5.366 1.305,0.518 2.088,1.311 2.048,2.706 -0.042,1.457 -0.763,2.662 -2.167,3.044 -1.196,0.325 -2.574,0.515 -3.758,0.253 C 93.958,10.047 88.257,7.215 83.14,3.239 82.324,2.604 81.739,1.671 81.046,0.876 M 13.733,-0.222 c 0.042,-0.227 0.085,-0.455 0.127,-0.682 3.089,-0.319 6.182,-0.928 9.265,-0.883 3.703,0.055 6.954,1.631 9.437,4.476 0.452,0.517 0.559,1.335 0.826,2.014 C 32.694,4.927 31.98,5.393 31.31,5.336 26.124,4.891 21.139,3.599 16.402,1.429 15.458,0.997 14.62,0.334 13.733,-0.222" />
          </g>
        </g>
      </g>
    </g>
  </g>
</svg>
